<svg xmlns="http://www.w3.org/2000/svg" viewBox="0 0 512 512" role="img" aria-label="Pythia">
  <defs>
    <filter id="soft-glow" x="-45%" y="-45%" width="190%" height="190%">
      <feGaussianBlur stdDeviation="8" result="blur" />
      <feColorMatrix in="blur" type="matrix" values="0 0 0 0 0  0 0 0 0 1  0 0 0 0 .47  0 0 0 .8 0" result="glow" />
      <feMerge>
        <feMergeNode in="glow" />
        <feMergeNode in="SourceGraphic" />
      </feMerge>
    </filter>
    <linearGradient id="green-fill" x1="256" x2="256" y1="115" y2="390" gradientUnits="userSpaceOnUse">
      <stop stop-color="#39ff9a" />
      <stop offset="1" stop-color="#00d86e" />
    </linearGradient>
  </defs>
  <rect width="512" height="512" fill="#030504" />
  <g opacity=".18">
    <path d="M0 58h512M0 116h512M0 174h512M0 232h512M0 290h512M0 348h512M0 406h512M0 464h512" stroke="#00ff83" stroke-width="1" />
  </g>
  <circle cx="256" cy="256" r="231" fill="none" stroke="#00e87b" stroke-width="5" opacity=".88" filter="url(#soft-glow)" />
  <circle cx="256" cy="256" r="232" fill="none" stroke="#42ffa6" stroke-width="1" opacity=".8" />
  <g filter="url(#soft-glow)">
    <path
      fill="url(#green-fill)"
      d="M126 121h260v45h-18v13h-47v211h-59V179h-52v211h-59V179h-47v-13H86v-45h40Z"
    />
    <path
      fill="#74ffc0"
      opacity=".5"
      d="M126 121h260v13H126v-13Zm-40 45h282v13H104v-13Zm65 13h59v15h-59v-15Zm111 0h59v15h-59v-15Z"
    />
  </g>
</svg>
